<svg xmlns="http://www.w3.org/2000/svg" viewBox="0 0 24 24" fill="#2563eb">
  <path fill-rule="evenodd" d="M9.315 7.584C12.195 3.883 16.695 1.5 21.75 1.5a.75.75 0 0 1 .75.75c0 5.056-2.383 9.555-6.084 12.436h.001c-1.22.949-2.565 1.756-3.986 2.389-.507.225-1.029.422-1.563.591l-.004.001c-.236.076-.478.15-.723.221a.75.75 0 0 1-.796-.17l-2.103-2.103a.75.75 0 0 1-.17-.796c.071-.245.145-.487.221-.723l.001-.004c.169-.534.366-1.056.591-1.563.633-1.421 1.44-2.766 2.389-3.986ZM4.5 19.5a1.5 1.5 0 1 1 3 0 1.5 1.5 0 0 1-3 0ZM3.75 21.75a.75.75 0 0 1-.75-.75v-1.5a.75.75 0 0 1 .75-.75h1.5a.75.75 0 0 1 .75.75v1.5a.75.75 0 0 1-.75.75h-1.5Z" clip-rule="evenodd" />
</svg>